<svg xmlns="http://www.w3.org/2000/svg" xmlns:xlink="http://www.w3.org/1999/xlink" width="50" height="50"><defs><circle id="a" cx="25" cy="25" r="25"/></defs><g fill="none" fill-rule="evenodd"><mask id="b" fill="#fff"><use xlink:href="#a"/></mask><use fill="#FFF" xlink:href="#a"/><path fill="#CFD7DF" fill-rule="nonzero" d="M33.544 33.002l3.63 1.312c2.902 1.05 4.825 3.726 4.826 6.715v2.983C42 45.11 41.077 56 39.937 56H11.064C9.922 56 9 45.11 9 44.012v-2.983c0-2.99 1.924-5.667 4.826-6.717L17.456 33c2.181 1.968 5.057 3.061 8.044 3.058 2.987.004 5.863-1.089 8.044-3.056zM25.102 13h.796a7.15 7.15 0 0 1 5.226 2.26 6.936 6.936 0 0 1 1.852 5.318l-.333 3.941C32.336 28.182 29.229 31 25.5 31c-3.73 0-6.835-2.818-7.143-6.48l-.332-3.94a6.935 6.935 0 0 1 1.85-5.32A7.15 7.15 0 0 1 25.103 13z" mask="url(#b)"/></g></svg>