<svg xmlns="http://www.w3.org/2000/svg" xmlns:xlink="http://www.w3.org/1999/xlink" width="24" height="24"><defs><circle id="a" cx="12" cy="12" r="12"/></defs><g fill="none" fill-rule="evenodd"><circle cx="12" cy="12" r="12" fill="#FFF" fill-rule="nonzero"/><mask id="b" fill="#fff"><use xlink:href="#a"/></mask><path fill="#CFD7DF" fill-rule="nonzero" d="M16.101 15.841l1.742.63c1.394.504 2.317 1.788 2.317 3.223v1.432c0 .527-.443 5.754-.99 5.754H5.31c-.547 0-.99-5.227-.99-5.754v-1.432c0-1.435.924-2.72 2.317-3.224l1.742-.63a5.757 5.757 0 0 0 3.861 1.468 5.757 5.757 0 0 0 3.861-1.467zM12.049 6.24h.382c.953 0 1.863.393 2.508 1.084.646.692.968 1.617.89 2.554l-.16 1.891c-.148 1.758-1.639 3.111-3.429 3.111-1.79 0-3.281-1.353-3.428-3.11l-.16-1.891a3.329 3.329 0 0 1 .888-2.554 3.432 3.432 0 0 1 2.51-1.085z" mask="url(#b)"/></g></svg>