<svg width="48" height="48" xmlns="http://www.w3.org/2000/svg"><g fill="#13B57D" fill-rule="evenodd"><path d="M17.144 34v2H3a3 3 0 0 1-3-3V3a3 3 0 0 1 3-3h18a3 3 0 0 1 3 3v15.31l-2 1.154V3a1 1 0 0 0-1-1h-4l-.544 1.632A2 2 0 0 1 14.558 5H9.442a2 2 0 0 1-1.898-1.368L7 2H3a1 1 0 0 0-1 1v30a1 1 0 0 0 1 1h14.144z" fill-rule="nonzero" opacity=".4"/><path d="M46.856 23.423L34 30.845l-12.856-7.422L33 16.577a2 2 0 0 1 2 0l11.856 6.846zm1 1.732v13.69a2 2 0 0 1-1 1.732L35 47.423V32.577l12.856-7.422zM33 47.423l-11.856-6.846a2 2 0 0 1-1-1.732v-13.69L33 32.577v14.846z"/></g></svg>