<svg width="48" height="48" xmlns="http://www.w3.org/2000/svg"><g fill="#13B57D" fill-rule="evenodd"><path d="M28.253 12H22v6h1.332a9.483 9.483 0 0 0-.32 2H22v6h1v2h-1v6h1v2H2a2 2 0 0 1-2-2V6a2 2 0 0 1 2-2h3V1a1 1 0 1 1 2 0v3h18V1a1 1 0 0 1 2 0v3h3a2 2 0 0 1 2 2v5.013a9.447 9.447 0 0 0-3.747.987zM2 28v6h8v-6H2zm0-2h8v-6H2v6zm0-8h8v-6H2v6zm10-6v6h8v-6h-8zm8 22v-6h-8v6h8zm-8-8h8v-6h-8v6zM6 8a1 1 0 0 0 1-1V6H5v1a1 1 0 0 0 1 1zm20 0a1 1 0 0 0 1-1V6h-2v1a1 1 0 0 0 1 1z" opacity=".4"/><path d="M28 38a2 2 0 0 1-2-2V20.5a6.5 6.5 0 0 1 11-4.69 6.5 6.5 0 0 1 11 4.69V36a2 2 0 0 1-2 2H28zm1-18a1 1 0 0 0-1 1v14a1 1 0 0 0 2 0V21a1 1 0 0 0-1-1zm9 0a1 1 0 0 0-1 1v14a1 1 0 0 0 2 0V21a1 1 0 0 0-1-1zm-7 20c1.657 0 3 1.267 3 2.829 0 .434-.106.863-.31 1.252l-1.769 3.379c-.25.48-.867.677-1.375.44a1 1 0 0 1-.467-.44l-1.768-3.379c-.734-1.4-.124-3.097 1.361-3.789A3.15 3.15 0 0 1 31 40zm12 0c1.657 0 3 1.267 3 2.829 0 .434-.106.863-.31 1.252l-1.769 3.379c-.25.48-.867.677-1.375.44a1 1 0 0 1-.467-.44l-1.768-3.379c-.734-1.4-.124-3.097 1.361-3.789A3.15 3.15 0 0 1 43 40z"/></g></svg>