<svg width="48" height="48" xmlns="http://www.w3.org/2000/svg"><g fill="#13B57D" fill-rule="evenodd"><path d="M35.973 19h-23.96a35.49 35.49 0 0 0 .656 6h5.457a3.995 3.995 0 0 0 1.048 1.83 3.969 3.969 0 0 0-.048.17h-5.984c.734 2.67 1.756 4.749 2.859 5.925L16 33v1c0 .703.182 1.364.5 1.938C7.26 35.176 0 27.436 0 18 0 8.059 8.059 0 18 0s18 8.059 18 18c0 .336-.01.669-.027 1zm-25.346 6a37.62 37.62 0 0 1-.615-6H2.031a15.907 15.907 0 0 0 1.577 6h7.02zm3.283 8.472c-1.175-1.575-2.155-3.807-2.84-6.472h-6.3a16.025 16.025 0 0 0 9.14 6.472zM32.392 11h-7.02a37.62 37.62 0 0 1 .616 6h7.981a15.907 15.907 0 0 0-1.577-6zM22.09 2.528C23.265 4.103 24.245 6.335 24.93 9h6.3a16.025 16.025 0 0 0-9.14-6.472zM2.03 17h7.982a37.62 37.62 0 0 1 .615-6H3.608a15.907 15.907 0 0 0-1.577 6zm9.04-8c.685-2.665 1.665-4.897 2.84-6.472C10.136 3.522 6.909 5.86 4.77 9h6.3zm1.6 2a35.49 35.49 0 0 0-.657 6h11.974a35.49 35.49 0 0 0-.656-6H12.669zM18 2c-1.794 0-3.69 2.75-4.858 7h9.716C21.69 4.75 19.794 2 18 2z" fill-rule="nonzero" opacity=".4"/><path d="M30.2 42a9.935 9.935 0 0 0 1.138 3H20a1 1 0 0 1-1-1v-1a1 1 0 0 1 1-1h10.2zm.258-5A9.996 9.996 0 0 0 30 40h-8a1 1 0 0 1-1-1v-1a1 1 0 0 1 1-1h8.458zm3.541-5a10.05 10.05 0 0 0-2.661 3H20a1 1 0 0 1-1-1v-1a1 1 0 0 1 1-1h13.999zM23 27h16a1 1 0 0 1 1 1v1a1 1 0 0 1-1 1H23a1 1 0 0 1-1-1v-1a1 1 0 0 1 1-1zm-1-5h16a1 1 0 0 1 1 1v1a1 1 0 0 1-1 1H22a1 1 0 0 1-1-1v-1a1 1 0 0 1 1-1zm18 26a8 8 0 1 1 0-16 8 8 0 0 1 0 16z"/></g></svg>