<svg width="22" height="22" viewBox="0 0 22 22" xmlns="http://www.w3.org/2000/svg"><title>Icon</title><g fill="#13B57D" fill-rule="evenodd"><path d="M11 0C4.924 0 0 4.924 0 11s4.924 11 11 11 11-4.924 11-11S17.076 0 11 0z" opacity=".18"/><path d="M11.448 14.97c-.128.573.767.765 1.535.095l.383.287c-.511.67-1.279 1.148-2.558 1.148s-1.79-.478-1.79-1.148c0-.191 0-.382.127-.765l.896-3.54c.128-.764-.768-.86-1.407-.286l-.384-.287c.384-.574 1.28-1.052 2.43-1.052 1.28 0 1.79.478 1.79 1.243 0 .192 0 .478-.127.67l-.895 3.635zm.64-6.887c-.896 0-1.664-.479-1.664-1.244s.64-1.339 1.663-1.339c.896 0 1.663.67 1.663 1.34 0 .669-.64 1.243-1.663 1.243z"/></g></svg>