<svg width="90" height="16" viewBox="0 0 90 16" xmlns="http://www.w3.org/2000/svg"><title>Rating</title><g fill="#AAB7C4" fill-rule="evenodd"><path d="M81.643 12.75l-4.912 2.627.938-5.564-3.974-3.94 5.492-.811L81.643 0l2.456 5.062 5.492.811-3.974 3.94.938 5.564zM63.643 12.75l-4.912 2.627.938-5.564-3.974-3.94 5.492-.811L63.643 0l2.456 5.062 5.492.811-3.974 3.94.938 5.564zM45.643 12.75l-4.912 2.627.938-5.564-3.974-3.94 5.492-.811L45.643 0l2.456 5.062 5.492.811-3.974 3.94.938 5.564zM26.357 12.75l-4.912 2.627.938-5.564-3.974-3.94 5.492-.811L26.357 0l2.456 5.062 5.492.811-3.974 3.94.938 5.564zM8.357 12.75l-4.912 2.627.938-5.564L.41 5.873l5.492-.811L8.357 0l2.456 5.062 5.492.811-3.974 3.94.938 5.564z"/></g></svg>