<svg xmlns="http://www.w3.org/2000/svg" width="52" height="52"><g fill="none" fill-rule="evenodd"><path fill="#BDC9D5" d="M.146 25.817l13.497-13.498 14.28-.01-13.496 13.497zM26.32 37.698l13.496-13.496-.01 14.28L26.31 51.98zM15.61 36.516c-7.959-7.958-8.734 8.734-9.528 9.528.794-.794 17.485-1.57 9.527-9.528z"/><path fill="#BDC9D5" d="M31.597 36.717c-3.755 2.258-7.413 3.675-10.579 4.11a16.662 16.662 0 0 0-3.82-5.9 16.662 16.662 0 0 0-5.9-3.82c.436-3.166 1.852-6.824 4.11-10.578 4.07.085 8.16 1.715 11.317 4.872 3.157 3.156 4.786 7.246 4.872 11.316z"/><path fill="#CFD7DF" d="M15.409 20.529c4.069.085 8.159 1.715 11.316 4.872l-9.528 9.527a16.662 16.662 0 0 0-5.9-3.821c.437-3.166 1.853-6.824 4.112-10.578z"/><path fill="#BDC9D5" d="M38.39 2.042C45.08.072 50.726.177 51.336.788c.61.61.716 6.255-1.254 12.946a16.605 16.605 0 0 0-4.303-7.389 16.605 16.605 0 0 0-7.39-4.303z"/><path fill="#CFD7DF" d="M45.779 6.345a16.605 16.605 0 0 0-7.39-4.303C45.082.072 50.727.177 51.337.788L45.78 6.345z"/><g><path fill="#ECFAFF" d="M50.083 13.735c-1.487 5.051-4.156 10.699-8.683 15.226-3.167 3.166-6.522 5.782-9.803 7.756-.086-4.07-1.716-8.16-4.872-11.316-3.157-3.157-7.247-4.786-11.316-4.872 1.973-3.281 4.59-6.637 7.756-9.803 4.527-4.527 10.174-7.197 15.225-8.683a16.605 16.605 0 0 1 7.39 4.303 16.605 16.605 0 0 1 4.303 7.39z"/><path fill="#FCFEFF" d="M45.78 6.346L26.724 25.401c-3.157-3.157-7.247-4.786-11.316-4.872 1.973-3.281 4.59-6.637 7.756-9.803 4.527-4.527 10.174-7.197 15.225-8.683a16.605 16.605 0 0 1 7.39 4.303z"/></g><g transform="rotate(-45 33.112 -32.506)"><ellipse cx="3.93" cy="3.924" fill="#BDC9D5" rx="3.93" ry="3.924"/><path fill="#CFD7DF" d="M0 3.924A3.927 3.927 0 0 1 3.93 0C6.1 0 7.86 1.757 7.86 3.924H0z"/></g></g></svg>