<svg xmlns="http://www.w3.org/2000/svg" width="210" height="20" viewBox="0 0 210 20">
  <path fill="#FFF" fill-rule="evenodd" d="M162.193084,3.9725 L162.193084,10.2602778 L164.079508,10.2602778 C165.656886,10.2602778 167.247846,9.55805556 167.247846,7.08861111 C167.232048,4.59638889 165.731445,3.9725 164.079508,3.9725 L162.193084,3.9725 Z M168.170548,13.8080556 L171.4237,19.6711111 L167.295797,19.6711111 L164.698984,14.6847222 L164.233338,13.8491667 L162.193084,13.8491667 L162.193084,19.6711111 L158.420791,19.6711111 L158.420791,0.356111111 L164.544323,0.356111111 C169.98657,0.356111111 170.995749,4.88611111 170.995749,7.34222222 C170.995749,10.0641667 169.637612,12.0483333 167.683004,12.9480556 C167.857345,13.2583333 168.033348,13.5694444 168.170548,13.8080556 Z M63.0111468,3.9725 L63.0111468,10.2602778 L64.8975706,10.2602778 C66.474672,10.2602778 68.0659091,9.55805556 68.0659091,7.08861111 C68.0498332,4.59638889 66.5492309,3.9725 64.8975706,3.9725 L63.0111468,3.9725 Z M68.9886104,13.8080556 L72.2417631,19.6711111 L68.1138596,19.6711111 L65.5170472,14.6847222 L65.0514004,13.8491667 L63.0111468,13.8491667 L63.0111468,19.6711111 L59.2385761,19.6711111 L59.2385761,0.356111111 L65.3623859,0.356111111 C70.8046329,0.356111111 71.8138115,4.88611111 71.8138115,7.34222222 C71.8138115,10.0641667 70.455675,12.0483333 68.5007899,12.9480556 C68.6754075,13.2583333 68.8514109,13.5694444 68.9886104,13.8080556 Z M213.124034,5.67138889 C213.124034,2.13694444 215.639359,0 219.466255,0 C223.184223,0 225.753872,2.49305556 225.753872,6.46583333 L222.036182,6.46583333 C222.036182,4.41083333 221.024508,3.45194444 219.411652,3.45194444 C217.798796,3.45194444 216.896605,4.21944444 216.896605,5.67138889 C216.896605,9.50666667 226,7.23277778 226,14.1369444 C226,17.8083333 223.375748,20 219.466255,20 C215.557316,20 212.878184,17.4516667 212.878184,13.315 L216.650755,13.315 C216.650755,15.5613889 217.798796,16.4933333 219.466255,16.4933333 C221.051948,16.4933333 222.227429,15.7533333 222.227429,14.1644444 C222.227429,10.4930556 213.124034,12.5205556 213.124034,5.67138889 Z M203.473782,4 L203.473782,8.38361111 L208.695124,8.38361111 L208.695124,11.6711111 L203.473782,11.6711111 L203.473782,16.0547222 L210.52639,16.0547222 L210.52639,19.6711111 L199.700934,19.6711111 L199.700934,0.356111111 L210.52639,0.356111111 L210.52639,4 L203.473782,4 Z M186.797528,16.0822222 L188.929526,16.0822222 C190.734184,16.0822222 192.100636,15.3697222 192.100636,11.5888889 L192.100636,7.83555556 C192.100636,5.75333333 191.554055,3.9725 188.929526,3.9725 L186.797528,3.9725 L186.797528,16.0822222 Z M183.024958,0.356111111 L189.367178,0.356111111 C193.194351,0.356111111 195.846044,2.7125 195.846044,7.42472222 L195.846044,12.5205556 C195.846044,17.1777778 193.194351,19.6711111 189.367178,19.6711111 L183.024958,19.6711111 L183.024958,0.356111111 Z M174.823476,19.6711111 L174.823476,0.356111111 L178.596047,0.356111111 L178.596047,19.6711111 L174.823476,19.6711111 Z M144.888485,4 L144.888485,19.6711111 L141.115914,19.6711111 L141.115914,4 L137.097493,4 L137.097493,0.356111111 L148.906906,0.356111111 L148.906906,4 L144.888485,4 Z M127.693091,4 L127.693091,8.38361111 L132.91471,8.38361111 L132.91471,11.6711111 L127.693091,11.6711111 L127.693091,16.0547222 L134.746254,16.0547222 L134.746254,19.6711111 L123.92052,19.6711111 L123.92052,0.356111111 L134.746254,0.356111111 L134.746254,4 L127.693091,4 Z M116.429704,19.6711111 L112.602531,11.6438889 L111.180923,11.6438889 L111.180923,19.6711111 L107.408352,19.6711111 L107.408352,0.356111111 L111.180923,0.356111111 L111.180923,8.30111111 L112.602531,8.30111111 L116.429704,0.356111111 L120.666813,0.356111111 L115.855684,9.945 L120.666813,19.6711111 L116.429704,19.6711111 Z M97.5116944,3.61638889 C96.1995682,3.61638889 94.8325622,4.32888889 94.8325622,6.54777778 L94.8325622,13.3975 C94.8325622,15.6713889 96.1995682,16.3563889 97.5116944,16.3563889 C99.2611959,16.3563889 100.217989,15.5066667 100.217989,12.685 L100.217989,12.4386111 L103.99056,12.4386111 C103.99056,17.3697222 101.885448,19.9725 97.5116944,19.9725 C93.6845211,19.9725 91.0328289,17.2327778 91.0328289,13.2875 L91.0328289,6.6575 C91.0328289,2.74 93.6845211,0 97.5116944,0 C101.803683,0 103.99056,2.82194444 103.99056,7.31527778 L100.217989,7.31527778 L100.217989,7.04111111 C100.217989,4.19194444 98.8240977,3.61638889 97.5116944,3.61638889 Z M84.1160337,13.4244444 L84.1160337,6.57527778 C84.1160337,4.41083333 82.8310703,3.61638889 81.4094617,3.61638889 C80.0698956,3.61638889 78.7306067,4.32888889 78.7306067,6.54777778 L78.7306067,13.3975 C78.7306067,15.5613889 79.9881302,16.3286111 81.4094617,16.3286111 C82.6944251,16.3286111 84.1160337,15.6438889 84.1160337,13.4244444 Z M74.9305962,13.2875 L74.9305962,6.71222222 C74.9305962,2.76694444 77.5822884,0 81.4094617,0 C85.2094722,0 87.8886043,2.76694444 87.8886043,6.71222222 L87.8886043,13.2875 C87.8886043,17.2052778 85.2094722,19.945 81.4094617,19.945 C77.5822884,19.945 74.9305962,17.2052778 74.9305962,13.2875 Z M40.6373446,1.11116667 C45.5280218,1.11116667 49.5068074,5.09866667 49.5068074,10.0000556 C49.5068074,14.9014444 45.5280218,18.8889444 40.6373446,18.8889444 L27.1219461,18.8889444 C26.5775829,18.8889444 26.1366042,18.4467222 26.1366042,17.9011667 C26.1366042,17.3556111 26.5775829,16.9136667 27.1219461,16.9136667 L40.6373446,16.9136667 C44.4412355,16.9136667 47.5358465,13.8122778 47.5358465,10.0000556 C47.5358465,6.18783333 44.4412355,3.08644444 40.6373446,3.08644444 L19.2381023,3.08644444 C18.693739,3.08644444 18.2524833,2.6445 18.2524833,2.09894444 C18.2524833,1.55338889 18.693739,1.11116667 19.2381023,1.11116667 L40.6373446,1.11116667 Z M37.6809031,10.0000556 C37.6809031,11.6336667 39.007165,12.9631111 40.6374831,12.9631111 C42.2675241,12.9631111 43.593786,11.6336667 43.593786,10.0000556 C43.593786,8.36644444 42.2675241,7.037 40.6374831,7.037 C39.007165,7.037 37.6809031,8.36644444 37.6809031,10.0000556 Z M45.5647469,10.0000556 C45.5647469,12.7231111 43.3543105,14.9383889 40.6374831,14.9383889 C37.9203786,14.9383889 35.7099422,12.7231111 35.7099422,10.0000556 C35.7099422,7.277 37.9203786,5.06172222 40.6374831,5.06172222 C43.3543105,5.06172222 45.5647469,7.277 45.5647469,10.0000556 Z M33.8796731,7.03713889 L23.7432628,7.03713889 C23.1988996,7.03713889 22.7576438,6.59491667 22.7576438,6.04936111 C22.7576438,5.50380556 23.1988996,5.06186111 23.7432628,5.06186111 L33.8796731,5.06186111 C34.4240364,5.06186111 34.8652921,5.50380556 34.8652921,6.04936111 C34.8652921,6.59491667 34.4240364,7.03713889 33.8796731,7.03713889 Z M34.865209,13.9506667 C34.865209,14.4962222 34.4239532,14.9384444 33.8795899,14.9384444 L22.6170351,14.9384444 C22.0726718,14.9384444 21.631416,14.4962222 21.631416,13.9506667 C21.631416,13.4051111 22.0726718,12.9628889 22.6170351,12.9628889 L33.8795899,12.9628889 C34.4239532,12.9628889 34.865209,13.4051111 34.865209,13.9506667 Z M33.7389258,10.0000556 C33.7389258,10.5456111 33.29767,10.9878333 32.7533067,10.9878333 L16.9856191,10.9878333 C16.4412558,10.9878333 16,10.5456111 16,10.0000556 C16,9.4545 16.4412558,9.01227778 16.9856191,9.01227778 L32.7533067,9.01227778 C33.29767,9.01227778 33.7389258,9.4545 33.7389258,10.0000556 Z" transform="translate(-16)"/>
</svg>
