<?xml version="1.0" encoding="utf-8"?>
<!-- Generator: Adobe Illustrator 22.1.0, SVG Export Plug-In . SVG Version: 6.00 Build 0)  -->
<svg version="1.1" id="Layer_1" xmlns="http://www.w3.org/2000/svg" xmlns:xlink="http://www.w3.org/1999/xlink" x="0px" y="0px"
	 viewBox="0 0 323.5 26" style="enable-background:new 0 0 323.5 26;" xml:space="preserve">
<style type="text/css">
	.st0{fill:#FFFFFF;}
</style>
<title>Rocket Rides</title>
<g>
	<path class="st0" d="M55.1,13.1c0-4.1-3.2-7.3-7.4-7.3c-4.1,0-7.4,3.2-7.4,7.3s3.2,7.3,7.4,7.3C51.9,20.4,55.1,17.2,55.1,13.1z
		 M43.5,13.1c0-2.4,1.9-4.2,4.2-4.2c2.4,0,4.2,1.9,4.2,4.2c0,2.4-1.9,4.2-4.2,4.2C45.5,17.3,43.5,15.4,43.5,13.1z M7.2,3.1
		c-0.9,0-1.5-0.9-1.5-1.6S6.4,0,7.2,0h40.7C55.1,0,61,5.7,61,12.9C61,20.2,55.1,26,47.9,26H24.6c-0.7,0-1.5-0.7-1.5-1.5
		c0-0.7,0.6-1.5,1.5-1.5h23.3c5.5,0,10-4.5,10-10c0-5.5-4.5-10-10-10L7.2,3.1L7.2,3.1z M13,17.3h24.5c0.7,0,1.5,0.6,1.5,1.5
		c0,0.7-0.6,1.5-1.5,1.5H13c-0.7,0-1.5-0.6-1.5-1.5C11.5,18,12.1,17.3,13,17.3z M37.5,5.7c0.9,0,1.5,0.7,1.4,1.5
		c0,0.7-0.6,1.5-1.5,1.5H24.6c-0.7,0-1.5-0.6-1.5-1.5c0-0.7,0.6-1.5,1.5-1.5H37.5z M1.5,14.6c-0.9,0-1.5-0.7-1.5-1.5
		c0-0.7,0.6-1.5,1.5-1.5h34.8c0.7,0,1.5,0.7,1.5,1.5c0,0.7-0.6,1.5-1.5,1.5H1.5z"/>
	<g id="Dashboard">
		<g id="Live-Transaction-Dashboard-_x28_No-Bank_x29_" transform="translate(-1428.000000, -75.000000)">
			<path id="ROCKET-RIDES" class="st0" d="M1523.4,96.2h-4.5l-4.7-5.6h-5.9v5.6h-3.7V79.8h11.3c4,0,7,1.8,7,5.4
				c0,2.8-1.8,4.5-4.6,5.1L1523.4,96.2z M1508.3,87.5h7.4c2,0,3.4-0.5,3.4-2.3c0-1.8-1.4-2.3-3.4-2.3h-7.4V87.5z M1537,96.7
				c-6.4,0-10.4-3.2-10.4-8.7s4-8.7,10.4-8.7c6.4,0,10.4,3.2,10.4,8.7S1543.4,96.7,1537,96.7z M1537,93.5c4,0,6.6-2,6.6-5.5
				s-2.5-5.5-6.6-5.5c-4,0-6.6,2-6.6,5.5S1533,93.5,1537,93.5z M1561.5,93.5c2.4,0,4.2-0.8,5.4-2.7l3.4,1.7c-1.5,2.3-4.7,4.2-9,4.2
				c-6.1,0-10.1-3.3-10.1-8.7s4-8.7,10.3-8.7c4.1,0,7.3,1.9,8.8,4.2l-3.4,1.7c-1.2-1.8-2.9-2.6-5.4-2.6c-3.9,0-6.5,1.9-6.5,5.5
				S1557.7,93.5,1561.5,93.5z M1593.6,96.2h-4.5l-6.3-7.7l-4.3,3.6v4.1h-3.7V79.8h3.7v8.3l9.7-8.3h4.9l-7.6,6.5L1593.6,96.2z
				 M1600.9,93.1h13.1v3.1h-16.9V79.8h16.6v3.1h-12.9v3.4h10.8v3.1h-10.8V93.1z M1635,79.8V83h-7.2v13.1h-3.7V83h-7.1v-3.2H1635z
				 M1665.3,96.2h-4.5l-4.7-5.6h-5.9v5.6h-3.7V79.8h11.3c4,0,7,1.8,7,5.4c0,2.8-1.8,4.5-4.6,5.1L1665.3,96.2z M1650.2,87.5h7.4
				c2,0,3.4-0.5,3.4-2.3c0-1.8-1.4-2.3-3.4-2.3h-7.4V87.5z M1673.5,96.2h-3.7V79.8h3.7V96.2z M1688.2,79.8c6.2,0,10.1,3.1,10.1,8.2
				s-4,8.2-10.1,8.2h-8.7V79.8H1688.2z M1687.9,93c3.9,0,6.6-1.6,6.6-5s-2.7-5-6.6-5h-4.7v10H1687.9z M1706.9,93.1h13.1v3.1h-16.9
				V79.8h16.6v3.1h-12.9v3.4h10.8v3.1h-10.8V93.1z M1733.3,86.1c5.2,0.4,8.9,1.5,8.9,5.1c0,3.2-3.1,5.5-8.9,5.5
				c-4.1,0-7.5-1.2-10-3.3l2.2-2.5c2,1.8,4.6,2.7,7.9,2.7c3.3,0,5-0.6,5-2c0-1.4-1.7-1.7-5.4-2.1c-4.7-0.4-9-1.4-9-4.9
				c0-3.4,3.6-5.3,8.7-5.3c3.6,0,6.7,0.9,8.7,2.5l-2.1,2.6c-1.8-1.4-4-1.9-6.7-2c-2.2,0-4.9,0.4-4.9,1.9
				C1727.7,85.7,1730,85.8,1733.3,86.1z"/>
		</g>
	</g>
</g>
</svg>
