<svg xmlns="http://www.w3.org/2000/svg" width="52" height="52" viewBox="0 0 52 52">
  <g fill="none" fill-rule="evenodd" transform="rotate(-45 36.289 24.93)">
    <polygon fill="#BDC9D5" points="10.105 0 29.193 0 39.298 10.091 20.211 10.091"/>
    <polygon fill="#BDC9D5" points="20.211 26.909 39.298 26.909 29.193 37 10.105 37"/>
    <path fill="#BDC9D5" d="M13.4736842,18.5 C13.4736842,7.24575919 1.12280702,18.5 2.27373675e-13,18.5 C1.12280702,18.5 13.4736842,29.7542408 13.4736842,18.5 Z"/>
    <g transform="translate(13.474 6.727)">
      <path fill="#BDC9D5" d="M11.1625703,23.2193919 C6.91071439,22.1613125 3.32263901,20.5767667 0.775694109,18.6463112 C1.71881935,16.5585338 2.24561404,14.2292569 2.24561404,11.7727273 C2.24561404,9.31619762 1.71881935,6.98692072 0.775694109,4.89914334 C3.32263901,2.96868787 6.91071439,1.38414206 11.1625703,0.326062599 C13.9793665,3.26413709 15.7192982,7.30828286 15.7192982,11.7727273 C15.7192982,16.2371717 13.9793665,20.2813175 11.1625703,23.2193919 Z"/>
      <path fill="#CFD7DF" d="M11.1625703,0.326062599 C13.9793665,3.26413709 15.7192982,7.30828286 15.7192982,11.7727273 L2.24561404,11.7727273 C2.24561404,9.31619762 1.71881935,6.98692072 0.775694109,4.89914334 C3.32263901,2.96868787 6.91071439,1.38414206 11.1625703,0.326062599 Z"/>
    </g>
    <g transform="translate(53.895 10.09)">
      <path fill="#BDC9D5" d="M0.0639585787,0.141204247 C6.18787823,3.47970949 10.1052632,7.54577369 10.1052632,8.40909091 C10.1052632,9.27240813 6.18787823,13.3384723 0.0639585787,16.6769776 C1.45006076,14.2545391 2.24561404,11.4279021 2.24561404,8.40909091 C2.24561404,5.39027972 1.45006076,2.56364272 0.0639585787,0.141204247 Z"/>
      <path fill="#CFD7DF" d="M2.24561404,8.40909091 C2.24561404,5.39027972 1.45006076,2.56364272 0.0639585787,0.141204247 C6.18787823,3.47970949 10.1052632,7.54577369 10.1052632,8.40909091 L2.24561404,8.40909091 Z"/>
    </g>
    <g transform="translate(23.579 5.606)">
      <path fill="#ECFAFF" d="M30.3797481,21.1618261 C25.7565877,23.68218 19.8758643,25.7878788 13.4736842,25.7878788 C8.99584419,25.7878788 4.77309785,25.2652831 1.0573071,24.3406041 C3.87410337,21.4025296 5.61403509,17.3583838 5.61403509,12.8939394 C5.61403509,8.42949499 3.87410337,4.38534921 1.0573071,1.44727472 C4.77309785,0.522595707 8.99584419,-1.13686838e-13 13.4736842,-1.13686838e-13 C19.8758643,-1.13686838e-13 25.7565877,2.10569875 30.3797481,4.62605273 C31.7658502,7.0484912 32.5614035,9.87512821 32.5614035,12.8939394 C32.5614035,15.9127506 31.7658502,18.7393876 30.3797481,21.1618261 Z"/>
      <path fill="#FCFEFF" d="M32.5614035,12.8939394 L5.61403509,12.8939394 C5.61403509,8.42949499 3.87410337,4.38534921 1.0573071,1.44727472 C4.77309785,0.522595707 8.99584419,-1.13686838e-13 13.4736842,-1.13686838e-13 C19.8758643,-1.13686838e-13 25.7565877,2.10569875 30.3797481,4.62605273 C31.7658502,7.0484912 32.5614035,9.87512821 32.5614035,12.8939394 Z"/>
    </g>
    <g transform="translate(41.544 14.576)">
      <ellipse cx="3.93" cy="3.924" fill="#BDC9D5" rx="3.93" ry="3.924"/>
      <path fill="#CFD7DF" d="M0,3.92424242 C0,1.75694318 1.75944239,0 3.92982456,0 C6.10020674,0 7.85964912,1.75694318 7.85964912,3.92424242 L0,3.92424242 Z"/>
    </g>
  </g>
</svg>
