<svg width="67" height="101" viewBox="0 0 67 101" xmlns="http://www.w3.org/2000/svg"><title>Rocket Rides</title><g fill-rule="nonzero" fill="#13B57D"><path d="M46.554 10.931c-.013-.862.093-1.739.317-2.632.717-2.826 2.197-4.988 4.433-6.489C53.543.316 56.205-.069 58.757.577c2.034.515 3.884 1.852 5.164 3.682 1.285 1.832 1.688 4.301 1.511 6.587l-7.643-1.935c-.95-.24-1.871-.341-2.479.529l-1.568 2.021c-.57.718-1.288.963-2.165.742l-5.023-1.272z"/><path d="M56.993 10.614l5.883 1.49-.106.413c-.475 1.875-1.579 3.325-3.315 4.36-1.737 1.03-3.541 1.312-5.406.837-2.424-.611-4.074-2.094-4.95-4.457l2.198.556c1.605.407 2.894.006 3.872-1.209l1.46-1.838c.103-.137.227-.186.364-.152zM38.827 64.243L33.195 48.16c-.616-2.598-.131-5.284.344-6.475l6.795-18.566c1.339-3.654 5.667-6.379 9.626-4.896 7.97 2.988 3.965 11.964 3.965 11.964l-2.039 3.995h10.508a3.71 3.71 0 0 1 0 7.422H56.27v-.014h-9.279a2.749 2.749 0 0 1-2.747-2.746v-6.949h-1.927v6.949a4.68 4.68 0 0 0 4.674 4.676h.128l-1.549 3.034 3.092 15.958c.126.715.028 2.631-.142 3.323L42.477 86.08c-.587 2.103-2.061 3.172-4.41 3.221-1.4.029-2.581-.408-3.556-1.304-.972-.894-1.47-2.043-1.495-3.438-.009-.443.077-1.015.251-1.708l5.56-18.608zM23.653 36.865l7.883-21.567c.011-.031.022-.055.033-.084.002-.007.004-.015.009-.023.157-.446.322-.741.632-1.111.755-.904 1.762-1.516 3.153-1.454 2.269.102 4.112 1.903 4.112 4.175 0 .139-.027.272-.041.409l-.001.01a4.07 4.07 0 0 1-.336 1.284L31.348 39.7c-.428 1.331-1.312 1.749-2.656 1.25l-3.795-1.431c-1.335-.427-1.743-1.308-1.244-2.654z"/><path d="M31.407 74.119l.104-.014a1.578 1.578 0 0 0 1.47-1.677c-.074-.817-.759-1.457-1.573-1.457-.534.029-.921.223-1.189.55-.28.311-.416.728-.383 1.145a1.59 1.59 0 0 0 1.571 1.453zm-.372-4.705c.016 0 .118 0 .133-.015.418-.03.802-.222 1.071-.534.266-.327.397-.727.371-1.146a1.57 1.57 0 0 0-1.561-1.452c-.996.074-1.634.831-1.571 1.692a1.577 1.577 0 0 0 1.557 1.455zm-.356-4.707h.135a1.531 1.531 0 0 0 1.069-.548c.264-.312.399-.728.371-1.145a1.57 1.57 0 0 0-1.56-1.455c-.55.045-.934.239-1.203.55a1.554 1.554 0 0 0-.371 1.146c.06.815.742 1.452 1.559 1.452zm-.355-4.704h.102a1.596 1.596 0 0 0 1.47-1.693c-.073-.814-.755-1.455-1.57-1.455-.536.045-.921.238-1.188.548a1.568 1.568 0 0 0-.388 1.145 1.595 1.595 0 0 0 1.574 1.455zm-.358-4.706h.121a1.568 1.568 0 0 0-.122-3.132c-.531.028-.919.221-1.187.533a1.557 1.557 0 0 0-.386 1.145c.06.815.759 1.454 1.574 1.454zm-.357-4.692s.104-.014.12-.014a1.561 1.561 0 0 0 1.438-1.676 1.583 1.583 0 0 0-1.572-1.456c-.979.075-1.632.833-1.558 1.693a1.571 1.571 0 0 0 1.572 1.453zm-.37-4.706h.105c.43-.043.816-.239 1.081-.549.284-.327.418-.726.388-1.142a1.595 1.595 0 0 0-1.574-1.454c-.994.072-1.634.831-1.573 1.692a1.581 1.581 0 0 0 1.573 1.453zM23.183 90.731c.833 0 1.529-.638 1.575-1.47a1.612 1.612 0 0 0-.388-1.144 1.542 1.542 0 0 0-1.082-.52h-.016c-.921 0-1.604.639-1.651 1.469-.026.416.107.816.388 1.128.282.312.654.506 1.084.535l.09.002zm.312-4.706a1.575 1.575 0 0 0 1.174-2.614 1.55 1.55 0 0 0-1.084-.52h-.015c-.921 0-1.604.638-1.663 1.469-.015.419.119.816.401 1.128a1.55 1.55 0 0 0 1.187.537zm.281-4.706c.833 0 1.514-.653 1.573-1.482a1.584 1.584 0 0 0-1.47-1.665h-.015c-.922 0-1.604.656-1.665 1.471-.025.43.121.831.403 1.144.266.312.653.504 1.068.533l.106-.001zm.282-4.705c.834 0 1.529-.653 1.576-1.469A1.536 1.536 0 0 0 25.248 74a1.613 1.613 0 0 0-1.085-.535c-.936 0-1.618.653-1.662 1.47a1.587 1.587 0 0 0 1.47 1.678l.087.001zm.297-4.705c.833 0 1.516-.654 1.575-1.484a1.58 1.58 0 0 0-.389-1.13 1.542 1.542 0 0 0-1.081-.533c-.922-.028-1.62.653-1.678 1.471-.016.415.119.83.399 1.141.284.314.67.506 1.084.521l.09.014zm.296-4.722c.832 0 1.517-.638 1.574-1.471a1.558 1.558 0 0 0-.401-1.128 1.5 1.5 0 0 0-1.066-.535c-.967-.014-1.618.641-1.678 1.472a1.6 1.6 0 0 0 .399 1.142c.267.312.652.504 1.068.521l.104-.001zm.298-4.706a1.55 1.55 0 0 0 1.558-1.471 1.552 1.552 0 0 0-1.467-1.663c-.936 0-1.618.637-1.665 1.47-.026.414.106.816.39 1.128a1.553 1.553 0 0 0 1.184.536zm.281-4.708c.833 0 1.517-.636 1.575-1.471a1.565 1.565 0 0 0-1.471-1.66h-.013c-.923 0-1.604.638-1.649 1.47-.028.417.104.818.385 1.145.282.312.667.49 1.086.518l.087-.002zm.298-4.703c.833 0 1.516-.638 1.574-1.471a1.589 1.589 0 0 0-1.471-1.677h-.016c-.92 0-1.603.653-1.663 1.483a1.587 1.587 0 0 0 1.473 1.665h.103zM3.469 79.629c.533 0 1.024-.269 1.321-.714.239-.357.313-.771.223-1.188a1.53 1.53 0 0 0-.683-.979c-.713-.46-1.72-.239-2.184.458a1.594 1.594 0 0 0-.207 1.189c.073.4.327.757.671.978.25.179.547.256.859.256zm2.568-3.95c.535 0 1.039-.269 1.321-.713a1.58 1.58 0 0 0-.459-2.183c-.714-.462-1.724-.238-2.169.461a1.534 1.534 0 0 0-.223 1.189 1.575 1.575 0 0 0 1.53 1.246zm2.569-3.95c.548 0 1.036-.267 1.319-.714a1.573 1.573 0 0 0-.459-2.18c-.698-.459-1.707-.238-2.168.459a1.58 1.58 0 0 0 .461 2.184c.253.161.552.251.847.251zm2.582-3.963c.536 0 1.024-.268 1.322-.713.222-.357.297-.771.207-1.174a1.585 1.585 0 0 0-.668-1.009c-.71-.46-1.721-.239-2.181.476-.226.341-.313.771-.226 1.174.092.414.328.771.686.994.251.162.548.252.86.252zm2.568-3.949c.534 0 1.022-.267 1.321-.714.223-.352.312-.771.223-1.186a1.57 1.57 0 0 0-.682-.996c-.699-.459-1.723-.236-2.184.461a1.673 1.673 0 0 0-.223 1.19c.089.413.342.756.684.993.267.163.565.252.861.252zm2.568-3.947c.534 0 1.039-.283 1.321-.729a1.49 1.49 0 0 0 .223-1.174 1.537 1.537 0 0 0-.684-.994c-.712-.459-1.722-.235-2.167.462a1.48 1.48 0 0 0-.223 1.172c.089.414.328.771.686.995.252.179.548.268.844.268zm2.569-3.964c.535 0 1.041-.267 1.323-.713.237-.356.31-.772.22-1.188a1.573 1.573 0 0 0-.683-.995c-.696-.444-1.707-.237-2.167.477a1.48 1.48 0 0 0-.221 1.172c.089.416.324.772.681.994.253.163.552.253.847.253zm2.585-3.95a1.58 1.58 0 0 0 1.318-.712c.226-.356.298-.772.209-1.188-.075-.415-.326-.757-.667-.996-.715-.459-1.722-.235-2.185.461-.22.357-.312.771-.22 1.188.087.417.326.756.683.994.251.165.547.253.862.253zm2.566-3.949c.536 0 1.025-.28 1.322-.725a1.573 1.573 0 0 0-.462-2.167c-.711-.461-1.722-.237-2.182.458-.223.34-.312.772-.223 1.174.09.416.341.771.683.995.268.177.564.265.862.265zM1.613 69.353c.475 0 .92-.207 1.216-.578.27-.311.387-.728.344-1.142a1.652 1.652 0 0 0-.565-1.071c-.653-.52-1.692-.414-2.211.225a1.573 1.573 0 0 0-.358 1.158c.046.414.239.801.565 1.053.284.24.638.355 1.009.355zm2.987-3.65a1.572 1.572 0 0 0 .992-2.792c-.653-.518-1.691-.415-2.21.224a1.57 1.57 0 0 0 .206 2.212c.282.238.638.356 1.012.356zm2.981-3.652a1.57 1.57 0 0 0 1.217-.577 1.577 1.577 0 0 0-.221-2.213c-.655-.52-1.692-.415-2.214.223a1.583 1.583 0 0 0-.356 1.159c.045.414.253.799.579 1.067.282.221.625.341.995.341zm2.983-3.652c.462 0 .906-.207 1.219-.564.266-.339.385-.742.34-1.172a1.623 1.623 0 0 0-.566-1.056c-.653-.52-1.689-.415-2.209.225-.551.683-.463 1.663.22 2.211.284.237.626.356.996.356zm2.985-3.651c.475 0 .92-.208 1.217-.579a1.581 1.581 0 0 0-.22-2.213c-.656-.518-1.695-.416-2.215.224a1.638 1.638 0 0 0-.356 1.158c.047.414.254.786.58 1.055.281.235.622.355.994.355zm2.983-3.654c.475 0 .922-.207 1.216-.578.271-.327.389-.729.345-1.144a1.608 1.608 0 0 0-.566-1.069c-.653-.519-1.692-.416-2.213.224-.549.683-.46 1.663.223 2.209.284.24.626.358.995.358zm2.984-3.651c.475 0 .92-.207 1.217-.579.269-.327.387-.728.342-1.144a1.52 1.52 0 0 0-.565-1.068c-.651-.521-1.677-.416-2.212.223a1.632 1.632 0 0 0-.354 1.157c.043.416.253.787.579 1.054.28.238.636.357.993.357zm2.984-3.651c.475 0 .92-.208 1.218-.58a1.576 1.576 0 0 0-.223-2.211c-.654-.535-1.691-.416-2.212.223a1.626 1.626 0 0 0-.357 1.158c.047.416.252.787.579 1.054.284.238.638.356.995.356zM6.66 100.276c.668 0 1.262-.43 1.486-1.055a1.56 1.56 0 0 0-.954-2.003c-.798-.297-1.734.163-2.002.948a1.565 1.565 0 0 0 .95 2.008c.181.073.359.102.52.102zm1.574-4.453c.668 0 1.262-.431 1.484-1.056a1.568 1.568 0 0 0-.95-2.004c-.803-.281-1.723.166-2.005.967a1.568 1.568 0 0 0 .951 2.005c.179.06.342.088.52.088zm1.574-4.453c.668 0 1.262-.416 1.486-1.039a1.563 1.563 0 0 0-.95-2.006c-.819-.294-1.724.166-2.006.952a1.556 1.556 0 0 0 .952 2.003c.177.06.337.09.518.09zm1.573-4.438c.668 0 1.262-.416 1.484-1.056a1.567 1.567 0 0 0-.95-2.005c-.815-.28-1.736.163-2.003.952a1.574 1.574 0 0 0 1.469 2.109zm1.575-4.453c.667 0 1.26-.418 1.482-1.04a1.531 1.531 0 0 0-.059-1.205 1.536 1.536 0 0 0-.89-.8c-.802-.296-1.723.149-2.008.95a1.564 1.564 0 0 0 1.475 2.095zm1.57-4.438c.67 0 1.264-.432 1.486-1.057a1.54 1.54 0 0 0-.06-1.202 1.58 1.58 0 0 0-.891-.803c-.801-.296-1.734.166-2.004.966-.296.804.134 1.709.95 2.004.181.061.357.092.519.092zm1.576-4.456a1.57 1.57 0 0 0 1.484-1.039 1.58 1.58 0 0 0-.95-2.018c-.802-.283-1.739.161-2.004.966a1.556 1.556 0 0 0 1.47 2.091zm1.573-4.439c.67 0 1.262-.431 1.484-1.053a1.558 1.558 0 0 0-.949-2.005c-.8-.284-1.722.16-2.005.949a1.586 1.586 0 0 0 .951 2.02c.162.061.343.089.519.089zm1.573-4.452c.668 0 1.262-.418 1.484-1.057a1.564 1.564 0 0 0-.948-2.003 1.608 1.608 0 0 0-2.016.964 1.583 1.583 0 0 0 .96 2.006c.165.062.343.09.52.09zm1.575-4.44c.669 0 1.262-.43 1.484-1.054a1.56 1.56 0 0 0-.949-2.004c-.816-.296-1.739.163-2.022.951a1.603 1.603 0 0 0 .969 2.017c.161.061.34.09.518.09z"/></g></svg>