<svg width="177" height="177" viewBox="0 0 177 177" xmlns="http://www.w3.org/2000/svg" xmlns:xlink="http://www.w3.org/1999/xlink"><title>Group</title><defs><circle id="b" cx="86.5" cy="86.5" r="86.5"/><filter x="-2.3%" y="-1.2%" width="104.6%" height="104.6%" filterUnits="objectBoundingBox" id="a"><feOffset dy="2" in="SourceAlpha" result="shadowOffsetOuter1"/><feGaussianBlur stdDeviation="1" in="shadowOffsetOuter1" result="shadowBlurOuter1"/><feColorMatrix values="0 0 0 0 0 0 0 0 0 0 0 0 0 0 0 0 0 0 0.15 0" in="shadowBlurOuter1"/></filter></defs><g fill="none" fill-rule="evenodd"><g transform="translate(2)"><use fill="#000" filter="url(#a)" xlink:href="#b"/><use fill="#FFF" xlink:href="#b"/></g><path d="M87.876 138.274c8.21 0 14.679-6.487 14.679-14.72s-6.469-14.72-14.68-14.72c-8.21 0-14.679 6.487-14.679 14.72s6.47 14.72 14.68 14.72zm0-23.202c4.727 0 8.459 3.742 8.459 8.482 0 4.74-3.732 8.483-8.46 8.483-4.727 0-8.459-3.743-8.459-8.483 0-4.49 3.732-8.482 8.46-8.482zM107.78 42.47c0-1.746 1.742-2.994 3.234-2.994 1.493 0 2.986 1.248 2.986 2.994v81.334C114 138.274 102.555 150 88.124 150 73.694 150 62 138.274 62 123.804V77.149c0-1.497 1.493-2.994 2.986-2.994 1.492 0 2.985 1.248 2.985 2.994v46.655c0 10.977 8.957 19.959 19.905 19.959 10.947 0 19.904-8.982 19.904-19.96V42.47zM79.416 53.947v48.9c0 1.497-1.244 2.993-2.985 2.993-1.493 0-2.986-1.247-2.986-2.993v-48.9c0-1.497 1.244-2.994 2.986-2.994 1.492 0 2.985 1.247 2.985 2.994zm23.139 49.15c0 1.746-1.493 2.993-2.986 2.743-1.492 0-2.985-1.247-2.985-2.993V77.149c0-1.497 1.244-2.994 2.985-2.994 1.493 0 2.986 1.248 2.986 2.994v25.947zM84.89 30.993c0-1.747 1.493-2.994 2.986-2.994 1.492 0 2.985 1.247 2.985 2.994V100.6c0 1.497-1.493 2.994-2.985 2.994-1.493 0-2.986-1.247-2.986-2.994V30.994z" fill="#13B57D" fill-rule="nonzero"/></g></svg>