<svg width="61" height="26" viewBox="0 0 61 26" xmlns="http://www.w3.org/2000/svg"><title>Rocket Rides</title><path d="M55.137 13.062c0-4.105-3.243-7.34-7.36-7.34-4.116 0-7.36 3.235-7.36 7.34s3.244 7.34 7.36 7.34c4.117 0 7.36-3.235 7.36-7.34zm-11.601 0c0-2.363 1.871-4.23 4.241-4.23 2.37 0 4.241 1.867 4.241 4.23 0 2.364-1.87 4.23-4.24 4.23-2.246 0-4.242-1.866-4.242-4.23zM7.236 3.11c-.874 0-1.498-.87-1.498-1.617S6.362 0 7.235 0h40.667C55.137 0 61 5.722 61 12.938 61 20.153 55.137 26 47.902 26H24.575c-.749 0-1.497-.746-1.497-1.493 0-.746.623-1.493 1.497-1.493h23.327c5.489 0 9.98-4.478 9.98-9.952 0-5.473-4.491-9.952-9.98-9.952H7.235zm5.737 14.182h24.45c.749 0 1.497.622 1.497 1.493 0 .746-.623 1.493-1.497 1.493h-24.45c-.748 0-1.497-.622-1.497-1.493 0-.747.624-1.493 1.497-1.493zm24.575-11.57c.873 0 1.497.747 1.372 1.493 0 .747-.623 1.493-1.497 1.493H24.575c-.749 0-1.497-.622-1.497-1.493 0-.746.623-1.493 1.497-1.493h12.973zM1.497 14.555C.624 14.555 0 13.809 0 13.062c0-.746.624-1.493 1.497-1.493H36.3c.748 0 1.497.747 1.497 1.493 0 .747-.624 1.493-1.497 1.493H1.497z" fill-rule="nonzero" fill="#FFF"/></svg>